<svg width="321" height="296" viewBox="0 0 321 296" fill="none" xmlns="http://www.w3.org/2000/svg">
<path d="M6.5582 287.827H6.82651C91.1421 280.608 274.911 129.303 310.064 32.7452C314.574 22.29 316.539 11.1422 315.836 0L315.979 0V288H3.99997C4.84232 287.962 5.69714 287.897 6.5582 287.827Z" fill="#3D7C98"/>
<path d="M304.48 46L301.981 268.721C301.981 271.447 300.7 274.061 298.421 275.989C296.141 277.917 293.05 279 289.826 279H41.9977C140.491 241 273.483 117.5 304.48 46Z" fill="url(#paint0_linear_118_3)"/>
<g filter="url(#filter0_dd_118_3)">
<path d="M315.836 0C319.549 58.1741 286.309 67.5311 126.992 56C138.08 159.922 61.2545 285.27 3.99997 288C97.0385 283.565 321.633 90.8491 315.836 0Z" fill="url(#paint1_linear_118_3)" style="mix-blend-mode:soft-light" shape-rendering="crispEdges"/>
</g>
<path d="M160.27 244.812H153.277L149.168 231.352L149.252 231.927C149.441 233.219 149.592 234.401 149.705 235.472C149.826 236.535 149.889 237.737 149.889 239.083V244.812H144.959V226.362H151.818L156.094 239.888L156.01 239.33C155.796 238.107 155.629 236.966 155.507 235.915C155.394 234.865 155.339 233.65 155.339 232.272V226.362H160.27V244.812Z" fill="#3D7C98"/>
<path d="M169.348 230.121C171.65 230.121 173.465 230.79 174.798 232.124C176.127 233.449 176.794 235.324 176.794 237.754C176.794 239.276 176.492 240.61 175.888 241.759C175.285 242.908 174.417 243.794 173.289 244.418C172.169 245.029 170.857 245.337 169.348 245.337C167.033 245.337 165.21 244.676 163.88 243.351C162.547 242.03 161.885 240.146 161.885 237.705C161.885 236.186 162.187 234.848 162.79 233.699C163.403 232.551 164.27 231.672 165.39 231.057C166.505 230.433 167.826 230.121 169.348 230.121ZM169.348 233.896C168.652 233.896 168.149 234.2 167.838 234.799C167.537 235.39 167.386 236.359 167.386 237.705C167.386 239.108 167.537 240.101 167.838 240.692C168.149 241.283 168.652 241.578 169.348 241.578C170.027 241.578 170.522 241.279 170.824 240.676C171.134 240.076 171.293 239.1 171.293 237.754C171.293 236.367 171.134 235.374 170.824 234.783C170.522 234.192 170.027 233.896 169.348 233.896Z" fill="#3D7C98"/>
<path d="M187.16 230.203C187.629 230.203 188.116 230.285 188.619 230.449L187.78 235.505C187.298 235.365 186.858 235.292 186.455 235.292C185.659 235.292 185.068 235.55 184.678 236.063C184.296 236.58 183.99 237.352 183.755 238.377V244.812H178.389V230.663H183.068L183.504 233.306C183.814 232.366 184.3 231.615 184.963 231.057C185.634 230.49 186.363 230.203 187.16 230.203Z" fill="#3D7C98"/>
<path d="M203.495 225.082V244.812H198.732L198.531 243.351C197.5 244.677 196.137 245.337 194.439 245.337C192.615 245.337 191.244 244.66 190.33 243.302C189.412 241.948 188.955 240.064 188.955 237.655C188.955 236.211 189.207 234.922 189.71 233.782C190.213 232.633 190.917 231.738 191.823 231.09C192.737 230.445 193.793 230.121 194.993 230.121C196.234 230.121 197.278 230.495 198.129 231.237V224.557L203.495 225.082ZM196.267 241.578C197.013 241.578 197.634 241.164 198.129 240.331V234.652C197.869 234.389 197.613 234.192 197.357 234.061C197.11 233.929 196.837 233.864 196.535 233.864C195.898 233.864 195.387 234.171 195.009 234.783C194.628 235.386 194.439 236.359 194.439 237.705C194.439 239.26 194.594 240.294 194.909 240.807C195.232 241.324 195.684 241.578 196.267 241.578Z" fill="#3D7C98"/>
<path d="M216.955 230.663V234.29L211.018 240.938H217.14L216.687 244.812H204.763V241.151L210.783 234.471H205.299V230.663H216.955Z" fill="#3D7C98"/>
<path d="M227.842 244.779C227.226 246.749 226.173 248.234 224.689 249.244C223.214 250.249 221.268 250.787 218.853 250.852L218.283 247.274C219.667 247.13 220.698 246.884 221.369 246.535C222.048 246.182 222.581 245.608 222.962 244.812H221.117L217.009 230.663H222.694L224.505 241.611L226.752 230.663H232.286L227.842 244.779Z" fill="#3D7C98"/>
<path d="M242.086 230.121C243.872 230.121 245.222 230.79 246.127 232.124C247.041 233.449 247.503 235.304 247.503 237.688C247.503 239.157 247.26 240.47 246.782 241.628C246.299 242.777 245.624 243.688 244.752 244.352C243.88 245.009 242.874 245.337 241.734 245.337C240.358 245.337 239.239 244.869 238.379 243.942V250.294L233.013 250.836V230.663H237.776L237.994 232.042C238.572 231.365 239.218 230.876 239.922 230.581C240.635 230.277 241.356 230.121 242.086 230.121ZM239.973 241.611C241.323 241.611 242.002 240.327 242.002 237.754C242.002 236.683 241.926 235.866 241.784 235.308C241.637 234.742 241.44 234.364 241.197 234.176C240.962 233.991 240.652 233.896 240.274 233.896C239.511 233.896 238.882 234.336 238.379 235.21V240.626C238.614 240.979 238.853 241.229 239.101 241.381C239.356 241.537 239.646 241.611 239.973 241.611Z" fill="#3D7C98"/>
<path d="M262.853 237.54C262.853 237.992 262.82 238.55 262.753 239.215H253.965C254.107 240.167 254.409 240.807 254.87 241.135C255.34 241.463 256.002 241.628 256.866 241.628C257.369 241.628 257.881 241.529 258.409 241.332C258.933 241.127 259.516 240.807 260.153 240.38L262.317 243.253C260.56 244.644 258.577 245.337 256.363 245.337C253.789 245.337 251.843 244.648 250.527 243.269C249.206 241.882 248.548 240.044 248.548 237.754C248.548 236.342 248.82 235.062 249.37 233.913C249.927 232.756 250.749 231.836 251.835 231.155C252.917 230.466 254.225 230.121 255.759 230.121C257.189 230.121 258.434 230.417 259.499 231.008C260.56 231.59 261.382 232.436 261.965 233.552C262.556 234.66 262.853 235.989 262.853 237.54ZM257.571 236.063C257.558 235.234 257.428 234.586 257.185 234.126C256.937 233.667 256.501 233.437 255.877 233.437C255.273 233.437 254.82 233.642 254.518 234.044C254.225 234.45 254.036 235.185 253.948 236.244H257.571V236.063Z" fill="#3D7C98"/>
<path d="M273.091 230.203C273.561 230.203 274.047 230.285 274.551 230.449L273.712 235.505C273.23 235.365 272.79 235.292 272.387 235.292C271.59 235.292 270.999 235.55 270.609 236.063C270.228 236.58 269.922 237.352 269.687 238.377V244.812H264.32V230.663H268.999L269.435 233.306C269.746 232.366 270.232 231.615 270.894 231.057C271.565 230.49 272.295 230.203 273.091 230.203Z" fill="#3D7C98"/>
<path d="M284.866 230.121C286.082 230.121 287.038 230.495 287.734 231.237C288.425 231.984 288.773 233.027 288.773 234.372V244.812H283.407V235.324C283.407 234.791 283.34 234.43 283.205 234.241C283.071 234.044 282.87 233.946 282.602 233.946C282.006 233.946 281.403 234.414 280.79 235.341V244.812H275.424V230.663H280.103L280.489 232.107C281.159 231.418 281.839 230.917 282.535 230.597C283.226 230.281 284.002 230.121 284.866 230.121Z" fill="#3D7C98"/>
<path d="M244.559 255.709H243.469V256.776H244.559V255.709Z" fill="#3D7C98"/>
<path d="M247.089 247.535H246.217V256.776H247.089V253.932L248.347 252.192L250.72 256.776H251.713L248.904 251.421L251.713 247.535H250.644L247.089 252.607V247.535Z" fill="#3D7C98"/>
<path d="M255.195 247.441L252.474 256.776H253.417L254.096 254.408H257.547L258.222 256.776H259.165L256.444 247.441H255.195ZM255.815 248.376L257.316 253.637H254.314L255.815 248.376Z" fill="#3D7C98"/>
<path d="M263.378 256.907C265.386 256.907 266.417 256.136 266.417 253.908V247.535H265.545V253.85C265.545 255.602 264.833 256.136 263.378 256.136C261.927 256.136 261.223 255.602 261.223 253.85V247.535H260.351V253.908C260.351 256.136 261.369 256.907 263.378 256.907Z" fill="#3D7C98"/>
<path d="M268.147 247.535V256.776H269.02V252.439H272.613V251.679H269.02V248.306H273.216V247.535H268.147Z" fill="#3D7C98"/>
<path d="M274.356 247.535V256.776H279.622V256.005H275.229V252.439H279.015V251.679H275.229V248.306H279.622V247.535H274.356Z" fill="#3D7C98"/>
<path d="M287.185 247.535H286.363V253.185L286.397 255.332L281.944 247.535H281.001V256.776H281.823V251.126L281.772 248.979L286.242 256.776H287.185V247.535Z" fill="#3D7C98"/>
<defs>
<filter id="filter0_dd_118_3" x="0" y="0" width="320.105" height="296" filterUnits="userSpaceOnUse" color-interpolation-filters="sRGB">
<feFlood flood-opacity="0" result="BackgroundImageFix"/>
<feColorMatrix in="SourceAlpha" type="matrix" values="0 0 0 0 0 0 0 0 0 0 0 0 0 0 0 0 0 0 127 0" result="hardAlpha"/>
<feOffset dy="4"/>
<feGaussianBlur stdDeviation="2"/>
<feComposite in2="hardAlpha" operator="out"/>
<feColorMatrix type="matrix" values="0 0 0 0 0 0 0 0 0 0 0 0 0 0 0 0 0 0 0.25 0"/>
<feBlend mode="normal" in2="BackgroundImageFix" result="effect1_dropShadow_118_3"/>
<feColorMatrix in="SourceAlpha" type="matrix" values="0 0 0 0 0 0 0 0 0 0 0 0 0 0 0 0 0 0 127 0" result="hardAlpha"/>
<feOffset dy="4"/>
<feGaussianBlur stdDeviation="2"/>
<feComposite in2="hardAlpha" operator="out"/>
<feColorMatrix type="matrix" values="0 0 0 0 0 0 0 0 0 0 0 0 0 0 0 0 0 0 0.25 0"/>
<feBlend mode="normal" in2="effect1_dropShadow_118_3" result="effect2_dropShadow_118_3"/>
<feBlend mode="normal" in="SourceGraphic" in2="effect2_dropShadow_118_3" result="shape"/>
</filter>
<linearGradient id="paint0_linear_118_3" x1="301.981" y1="23346" x2="-22759.8" y2="-3277.24" gradientUnits="userSpaceOnUse">
<stop offset="0.1" stop-color="#828282"/>
<stop offset="0.2" stop-color="#999999"/>
<stop offset="0.35" stop-color="#A3A3A3"/>
<stop offset="0.6" stop-color="white"/>
</linearGradient>
<linearGradient id="paint1_linear_118_3" x1="30.9982" y1="81" x2="250.495" y2="255.486" gradientUnits="userSpaceOnUse">
<stop offset="0.134831" stop-color="white"/>
<stop offset="0.358793" stop-color="white"/>
<stop offset="0.515046" stop-color="#B6B6B6"/>
<stop offset="0.811927"/>
</linearGradient>
</defs>
</svg>
